<svg xmlns="http://www.w3.org/2000/svg" xmlns:xlink="http://www.w3.org/1999/xlink" viewBox="0 0 32 32">
  <defs>
    <linearGradient id="a">
      <stop offset="0" stop-color="hsl(290, 100%, 50%)"/>
      <stop offset="1" stop-color="hsl(50, 100%, 50%)"/>
    </linearGradient>
    <linearGradient id="b" x1="868.253" x2="937.656" y1="521.354" y2="588.736" gradientTransform="translate(-884.646 491.682) scale(1.02524)" gradientUnits="userSpaceOnUse" xlink:href="#a"/>
  </defs>
  
  <g transform="translate(0 -1020.362)">
    <rect width="32" height="50" y="1020.362" fill="url(#b)" rx="6.763" ry="6.763"/>
    <path fill="#000" style="text-indent:0;text-align:start;line-height:normal;text-transform:none;block-progression:tb" d="M 16 8.5 C 11.863781 8.5 8.5 11.8638 8.5 16 C 8.5 20.1362 11.863781 23.5 16 23.5 C 20.136211 23.5 23.5 20.1362 23.5 16 C 23.5 11.8638 20.136211 8.5 16 8.5 z M 16 9.5 C 19.595771 9.5 22.5 12.4043 22.5 16 C 22.5 19.5958 19.595771 22.5 16 22.5 C 12.404221 22.5 9.5 19.5958 9.5 16 C 9.5 12.4043 12.404221 9.5 16 9.5 z M 15.90625 11 A 0.50004998 0.50004998 0 0 0 15.5 11.5 L 15.5 16 A 0.50004998 0.50004998 0 0 0 16 16.5 L 20.5 16.5 A 0.50004998 0.50004998 0 1 0 20.5 15.5 L 16.5 15.5 L 16.5 11.5 A 0.50004998 0.50004998 0 0 0 16 11 A 0.50004998 0.50004998 0 0 0 15.90625 11 z " color="#000" font-family="sans-serif" font-weight="400" overflow="visible" transform="translate(0 1020.362)"/>
  </g>
</svg>